<mxfile host="app.diagrams.net" modified="2024-03-28T18:24:53.581Z" agent="Mozilla/5.0 (Windows NT 10.0; Win64; x64) AppleWebKit/537.36 (KHTML, like Gecko) Chrome/123.0.0.0 Safari/537.36" etag="AnB5OnCnElVFhFzSdG3z" version="24.2.1" type="github">
  <diagram name="Página-1" id="1gF6S7yc9UoDPYpSebd_">
    <mxGraphModel dx="1050" dy="565" grid="1" gridSize="10" guides="1" tooltips="1" connect="1" arrows="1" fold="1" page="1" pageScale="1" pageWidth="827" pageHeight="1169" math="0" shadow="0">
      <root>
        <mxCell id="0" />
        <mxCell id="1" parent="0" />
        <mxCell id="lvV2fhuHc77MdSL7qinS-11" value="Convenio" style="rounded=0;whiteSpace=wrap;html=1;fontStyle=1" vertex="1" parent="1">
          <mxGeometry x="650" y="282.5" width="120" height="60" as="geometry" />
        </mxCell>
        <mxCell id="lvV2fhuHc77MdSL7qinS-12" value="Medico" style="rounded=0;whiteSpace=wrap;html=1;fontStyle=1" vertex="1" parent="1">
          <mxGeometry x="650" y="622.5" width="120" height="60" as="geometry" />
        </mxCell>
        <mxCell id="lvV2fhuHc77MdSL7qinS-13" value="Consulta" style="rounded=0;whiteSpace=wrap;html=1;fontStyle=1" vertex="1" parent="1">
          <mxGeometry x="50" y="622.5" width="120" height="60" as="geometry" />
        </mxCell>
        <mxCell id="lvV2fhuHc77MdSL7qinS-14" value="Paciente" style="rounded=0;whiteSpace=wrap;html=1;fontStyle=1" vertex="1" parent="1">
          <mxGeometry x="50" y="282.5" width="120" height="60" as="geometry" />
        </mxCell>
        <mxCell id="lvV2fhuHc77MdSL7qinS-15" value="" style="rhombus;whiteSpace=wrap;html=1;" vertex="1" parent="1">
          <mxGeometry x="300" y="270" width="200" height="85" as="geometry" />
        </mxCell>
        <mxCell id="lvV2fhuHc77MdSL7qinS-16" value="" style="rhombus;whiteSpace=wrap;html=1;" vertex="1" parent="1">
          <mxGeometry x="610" y="432.5" width="200" height="85" as="geometry" />
        </mxCell>
        <mxCell id="lvV2fhuHc77MdSL7qinS-17" value="" style="rhombus;whiteSpace=wrap;html=1;" vertex="1" parent="1">
          <mxGeometry x="310" y="610" width="200" height="85" as="geometry" />
        </mxCell>
        <mxCell id="lvV2fhuHc77MdSL7qinS-27" value="" style="endArrow=none;html=1;rounded=0;entryX=0;entryY=0.5;entryDx=0;entryDy=0;" edge="1" parent="1" target="lvV2fhuHc77MdSL7qinS-15">
          <mxGeometry width="50" height="50" relative="1" as="geometry">
            <mxPoint x="170" y="312" as="sourcePoint" />
            <mxPoint x="260" y="312" as="targetPoint" />
            <Array as="points">
              <mxPoint x="170" y="312" />
            </Array>
          </mxGeometry>
        </mxCell>
        <mxCell id="lvV2fhuHc77MdSL7qinS-28" value="" style="endArrow=none;html=1;rounded=0;entryX=0;entryY=0.5;entryDx=0;entryDy=0;" edge="1" parent="1" target="lvV2fhuHc77MdSL7qinS-11">
          <mxGeometry width="50" height="50" relative="1" as="geometry">
            <mxPoint x="500" y="312" as="sourcePoint" />
            <mxPoint x="630" y="312.5" as="targetPoint" />
            <Array as="points">
              <mxPoint x="500" y="312" />
            </Array>
          </mxGeometry>
        </mxCell>
        <mxCell id="lvV2fhuHc77MdSL7qinS-31" value="" style="endArrow=none;html=1;rounded=0;entryX=0.5;entryY=0;entryDx=0;entryDy=0;" edge="1" parent="1" target="lvV2fhuHc77MdSL7qinS-12">
          <mxGeometry width="50" height="50" relative="1" as="geometry">
            <mxPoint x="709.5" y="517.5" as="sourcePoint" />
            <mxPoint x="710" y="607.5" as="targetPoint" />
            <Array as="points">
              <mxPoint x="709.5" y="517.5" />
            </Array>
          </mxGeometry>
        </mxCell>
        <mxCell id="lvV2fhuHc77MdSL7qinS-32" value="" style="endArrow=none;html=1;rounded=0;" edge="1" parent="1">
          <mxGeometry width="50" height="50" relative="1" as="geometry">
            <mxPoint x="709.5" y="342.5" as="sourcePoint" />
            <mxPoint x="710" y="432.5" as="targetPoint" />
            <Array as="points">
              <mxPoint x="709.5" y="342.5" />
            </Array>
          </mxGeometry>
        </mxCell>
        <mxCell id="lvV2fhuHc77MdSL7qinS-33" value="" style="endArrow=none;html=1;rounded=0;" edge="1" parent="1">
          <mxGeometry width="50" height="50" relative="1" as="geometry">
            <mxPoint x="510" y="652" as="sourcePoint" />
            <mxPoint x="650" y="652.5" as="targetPoint" />
            <Array as="points">
              <mxPoint x="510" y="652" />
            </Array>
          </mxGeometry>
        </mxCell>
        <mxCell id="lvV2fhuHc77MdSL7qinS-36" value="" style="endArrow=none;html=1;rounded=0;" edge="1" parent="1">
          <mxGeometry width="50" height="50" relative="1" as="geometry">
            <mxPoint x="170" y="652" as="sourcePoint" />
            <mxPoint x="310" y="652.5" as="targetPoint" />
            <Array as="points">
              <mxPoint x="170" y="652" />
            </Array>
          </mxGeometry>
        </mxCell>
        <mxCell id="lvV2fhuHc77MdSL7qinS-38" value="" style="endArrow=none;html=1;rounded=0;startArrow=oval;startFill=0;" edge="1" parent="1">
          <mxGeometry width="50" height="50" relative="1" as="geometry">
            <mxPoint x="150" y="144.5" as="sourcePoint" />
            <mxPoint x="110" y="144.5" as="targetPoint" />
          </mxGeometry>
        </mxCell>
        <mxCell id="lvV2fhuHc77MdSL7qinS-39" value="" style="endArrow=none;html=1;rounded=0;startArrow=oval;startFill=1;" edge="1" parent="1">
          <mxGeometry width="50" height="50" relative="1" as="geometry">
            <mxPoint x="150" y="114.5" as="sourcePoint" />
            <mxPoint x="110" y="114.5" as="targetPoint" />
          </mxGeometry>
        </mxCell>
        <mxCell id="lvV2fhuHc77MdSL7qinS-40" value="" style="endArrow=none;html=1;rounded=0;startArrow=oval;startFill=0;" edge="1" parent="1">
          <mxGeometry width="50" height="50" relative="1" as="geometry">
            <mxPoint x="150" y="174.5" as="sourcePoint" />
            <mxPoint x="110" y="174.5" as="targetPoint" />
          </mxGeometry>
        </mxCell>
        <mxCell id="lvV2fhuHc77MdSL7qinS-41" value="&lt;span style=&quot;color: rgba(0, 0, 0, 0); font-family: monospace; font-size: 0px; text-align: start; background-color: rgb(251, 251, 251);&quot;&gt;%3CmxGraphModel%3E%3Croot%3E%3CmxCell%20id%3D%220%22%2F%3E%3CmxCell%20id%3D%221%22%20parent%3D%220%22%2F%3E%3CmxCell%20id%3D%222%22%20value%3D%22%22%20style%3D%22endArrow%3Dnone%3Bhtml%3D1%3Brounded%3D0%3BstartArrow%3Doval%3BstartFill%3D0%3B%22%20edge%3D%221%22%20parent%3D%221%22%3E%3CmxGeometry%20width%3D%2250%22%20height%3D%2250%22%20relative%3D%221%22%20as%3D%22geometry%22%3E%3CmxPoint%20x%3D%22140%22%20y%3D%22200%22%20as%3D%22sourcePoint%22%2F%3E%3CmxPoint%20x%3D%22100%22%20y%3D%22200%22%20as%3D%22targetPoint%22%2F%3E%3C%2FmxGeometry%3E%3C%2FmxCell%3E%3C%2Froot%3E%3C%2FmxGraphModel%3E&lt;/span&gt;" style="endArrow=none;html=1;rounded=0;startArrow=oval;startFill=0;" edge="1" parent="1">
          <mxGeometry width="50" height="50" relative="1" as="geometry">
            <mxPoint x="150" y="204.5" as="sourcePoint" />
            <mxPoint x="110" y="204.5" as="targetPoint" />
          </mxGeometry>
        </mxCell>
        <mxCell id="lvV2fhuHc77MdSL7qinS-42" value="" style="endArrow=none;html=1;rounded=0;startArrow=oval;startFill=0;" edge="1" parent="1">
          <mxGeometry width="50" height="50" relative="1" as="geometry">
            <mxPoint x="150" y="234.5" as="sourcePoint" />
            <mxPoint x="110" y="234.5" as="targetPoint" />
          </mxGeometry>
        </mxCell>
        <mxCell id="lvV2fhuHc77MdSL7qinS-43" value="CPF (PK)" style="text;html=1;align=center;verticalAlign=middle;resizable=0;points=[];autosize=1;strokeColor=none;fillColor=none;" vertex="1" parent="1">
          <mxGeometry x="160" y="100" width="70" height="30" as="geometry" />
        </mxCell>
        <mxCell id="lvV2fhuHc77MdSL7qinS-44" value="Nome" style="text;html=1;align=center;verticalAlign=middle;resizable=0;points=[];autosize=1;strokeColor=none;fillColor=none;" vertex="1" parent="1">
          <mxGeometry x="165" y="130" width="60" height="30" as="geometry" />
        </mxCell>
        <mxCell id="lvV2fhuHc77MdSL7qinS-45" value="telefone" style="text;html=1;align=center;verticalAlign=middle;resizable=0;points=[];autosize=1;strokeColor=none;fillColor=none;" vertex="1" parent="1">
          <mxGeometry x="160" y="160" width="70" height="30" as="geometry" />
        </mxCell>
        <mxCell id="lvV2fhuHc77MdSL7qinS-46" value="email" style="text;html=1;align=center;verticalAlign=middle;resizable=0;points=[];autosize=1;strokeColor=none;fillColor=none;" vertex="1" parent="1">
          <mxGeometry x="170" y="190" width="50" height="30" as="geometry" />
        </mxCell>
        <mxCell id="lvV2fhuHc77MdSL7qinS-47" value="endereço" style="text;html=1;align=center;verticalAlign=middle;resizable=0;points=[];autosize=1;strokeColor=none;fillColor=none;" vertex="1" parent="1">
          <mxGeometry x="160" y="220" width="70" height="30" as="geometry" />
        </mxCell>
        <mxCell id="lvV2fhuHc77MdSL7qinS-48" value="" style="endArrow=none;html=1;rounded=0;exitX=0.5;exitY=0;exitDx=0;exitDy=0;" edge="1" parent="1" source="lvV2fhuHc77MdSL7qinS-14">
          <mxGeometry width="50" height="50" relative="1" as="geometry">
            <mxPoint x="60" y="150" as="sourcePoint" />
            <mxPoint x="110" y="110" as="targetPoint" />
          </mxGeometry>
        </mxCell>
        <mxCell id="lvV2fhuHc77MdSL7qinS-49" value="" style="endArrow=none;html=1;rounded=0;startArrow=oval;startFill=0;" edge="1" parent="1">
          <mxGeometry width="50" height="50" relative="1" as="geometry">
            <mxPoint x="320" y="74.5" as="sourcePoint" />
            <mxPoint x="280" y="74.5" as="targetPoint" />
          </mxGeometry>
        </mxCell>
        <mxCell id="lvV2fhuHc77MdSL7qinS-50" value="" style="endArrow=none;html=1;rounded=0;startArrow=oval;startFill=0;" edge="1" parent="1">
          <mxGeometry width="50" height="50" relative="1" as="geometry">
            <mxPoint x="320" y="104.5" as="sourcePoint" />
            <mxPoint x="280" y="104.5" as="targetPoint" />
          </mxGeometry>
        </mxCell>
        <mxCell id="lvV2fhuHc77MdSL7qinS-52" value="" style="endArrow=none;html=1;rounded=0;startArrow=oval;startFill=0;" edge="1" parent="1">
          <mxGeometry width="50" height="50" relative="1" as="geometry">
            <mxPoint x="320" y="134.5" as="sourcePoint" />
            <mxPoint x="280" y="134.5" as="targetPoint" />
          </mxGeometry>
        </mxCell>
        <mxCell id="lvV2fhuHc77MdSL7qinS-53" value="" style="endArrow=none;html=1;rounded=0;startArrow=oval;startFill=0;" edge="1" parent="1">
          <mxGeometry width="50" height="50" relative="1" as="geometry">
            <mxPoint x="320" y="164.5" as="sourcePoint" />
            <mxPoint x="280" y="164.5" as="targetPoint" />
          </mxGeometry>
        </mxCell>
        <mxCell id="lvV2fhuHc77MdSL7qinS-54" value="" style="endArrow=none;html=1;rounded=0;startArrow=oval;startFill=0;" edge="1" parent="1">
          <mxGeometry width="50" height="50" relative="1" as="geometry">
            <mxPoint x="320" y="194.5" as="sourcePoint" />
            <mxPoint x="280" y="194.5" as="targetPoint" />
          </mxGeometry>
        </mxCell>
        <mxCell id="lvV2fhuHc77MdSL7qinS-55" value="" style="endArrow=none;html=1;rounded=0;startArrow=oval;startFill=0;" edge="1" parent="1">
          <mxGeometry width="50" height="50" relative="1" as="geometry">
            <mxPoint x="320" y="224.5" as="sourcePoint" />
            <mxPoint x="280" y="224.5" as="targetPoint" />
          </mxGeometry>
        </mxCell>
        <mxCell id="lvV2fhuHc77MdSL7qinS-56" value="" style="endArrow=none;html=1;rounded=0;startArrow=oval;startFill=0;" edge="1" parent="1">
          <mxGeometry width="50" height="50" relative="1" as="geometry">
            <mxPoint x="320" y="44.5" as="sourcePoint" />
            <mxPoint x="280" y="44.5" as="targetPoint" />
          </mxGeometry>
        </mxCell>
        <mxCell id="lvV2fhuHc77MdSL7qinS-57" value="rua" style="text;html=1;align=center;verticalAlign=middle;resizable=0;points=[];autosize=1;strokeColor=none;fillColor=none;" vertex="1" parent="1">
          <mxGeometry x="335" y="30" width="40" height="30" as="geometry" />
        </mxCell>
        <mxCell id="lvV2fhuHc77MdSL7qinS-58" value="numero" style="text;html=1;align=center;verticalAlign=middle;resizable=0;points=[];autosize=1;strokeColor=none;fillColor=none;" vertex="1" parent="1">
          <mxGeometry x="335" y="60" width="60" height="30" as="geometry" />
        </mxCell>
        <mxCell id="lvV2fhuHc77MdSL7qinS-59" value="complemento" style="text;html=1;align=center;verticalAlign=middle;resizable=0;points=[];autosize=1;strokeColor=none;fillColor=none;" vertex="1" parent="1">
          <mxGeometry x="330" y="90" width="100" height="30" as="geometry" />
        </mxCell>
        <mxCell id="lvV2fhuHc77MdSL7qinS-60" value="bairro" style="text;html=1;align=center;verticalAlign=middle;resizable=0;points=[];autosize=1;strokeColor=none;fillColor=none;" vertex="1" parent="1">
          <mxGeometry x="335" y="120" width="50" height="30" as="geometry" />
        </mxCell>
        <mxCell id="lvV2fhuHc77MdSL7qinS-61" value="CEP" style="text;html=1;align=center;verticalAlign=middle;resizable=0;points=[];autosize=1;strokeColor=none;fillColor=none;" vertex="1" parent="1">
          <mxGeometry x="330" y="150" width="50" height="30" as="geometry" />
        </mxCell>
        <mxCell id="lvV2fhuHc77MdSL7qinS-62" value="cidade" style="text;html=1;align=center;verticalAlign=middle;resizable=0;points=[];autosize=1;strokeColor=none;fillColor=none;" vertex="1" parent="1">
          <mxGeometry x="330" y="180" width="60" height="30" as="geometry" />
        </mxCell>
        <mxCell id="lvV2fhuHc77MdSL7qinS-63" value="estado" style="text;html=1;align=center;verticalAlign=middle;resizable=0;points=[];autosize=1;strokeColor=none;fillColor=none;" vertex="1" parent="1">
          <mxGeometry x="330" y="210" width="60" height="30" as="geometry" />
        </mxCell>
        <mxCell id="lvV2fhuHc77MdSL7qinS-65" value="" style="endArrow=none;html=1;rounded=0;" edge="1" parent="1">
          <mxGeometry width="50" height="50" relative="1" as="geometry">
            <mxPoint x="280" y="240" as="sourcePoint" />
            <mxPoint x="280" y="40" as="targetPoint" />
          </mxGeometry>
        </mxCell>
        <mxCell id="lvV2fhuHc77MdSL7qinS-66" value="" style="endArrow=none;html=1;rounded=0;" edge="1" parent="1">
          <mxGeometry width="50" height="50" relative="1" as="geometry">
            <mxPoint x="240" y="239" as="sourcePoint" />
            <mxPoint x="280" y="239" as="targetPoint" />
          </mxGeometry>
        </mxCell>
      </root>
    </mxGraphModel>
  </diagram>
</mxfile>
